<svg width="293" height="317" viewBox="0 0 293 317" fill="none" xmlns="http://www.w3.org/2000/svg">
<path fill-rule="evenodd" clip-rule="evenodd" d="M173.761 297.786C128.714 306.668 76.3885 316.663 43.5012 284.632C10.3039 252.3 11.4727 197.758 25.8181 153.697C37.3514 118.273 75.8196 105.127 108.038 86.4103C138.188 68.8946 167.708 42.2333 201.244 51.7844C236.331 61.7776 254.909 97.675 267.626 131.862C280.823 167.342 289.799 206.794 271.159 239.745C251.583 274.349 212.774 290.094 173.761 297.786Z" fill="#F5F5F5"/>
<path d="M62.1374 273.637H50.7715V279.405H62.1374V273.637Z" fill="#E0E0E0"/>
<path d="M157.319 273.637H145.953V279.405H157.319V273.637Z" fill="#E0E0E0"/>
<path d="M70.8732 230.535C69.2815 230.589 67.7198 230.984 66.2934 231.692C64.8669 232.4 63.6086 233.406 62.6033 234.641C60.3305 237.437 59.0988 240.934 59.1186 244.537C59.0479 248.587 60.1081 252.595 61.5147 256.355C64.3509 263.928 68.9554 270.714 74.9446 276.147C75.3687 276.528 75.9907 275.906 75.5737 275.525C70.3259 270.757 66.1465 264.932 63.3101 258.433C60.4828 251.931 58.0583 243.335 62.0944 236.811C63.9887 233.751 67.1906 231.418 70.8803 231.39C70.9879 231.376 71.0867 231.324 71.1584 231.243C71.2301 231.161 71.2696 231.057 71.2696 230.948C71.2696 230.84 71.2301 230.735 71.1584 230.654C71.0867 230.572 70.9879 230.52 70.8803 230.506L70.8732 230.535Z" fill="#263238"/>
<path d="M129.76 263.607L133.005 250.269L76.4014 246.191L79.2287 264.844L101.522 275.412L129.76 263.607Z" fill="#263238"/>
<path d="M126.389 190.492L116.14 194.217L138.829 232.217L149.863 222.293L146.837 203.428L126.389 190.492Z" fill="#263238"/>
<path d="M142.488 232.108C145.531 211.478 131.273 192.287 110.642 189.244C90.0118 186.201 70.8208 200.459 67.778 221.09C64.7352 241.72 78.993 260.911 99.6236 263.954C120.254 266.997 139.445 252.739 142.488 232.108Z" fill="#E0E0E0"/>
<path d="M91.111 203.993L90.7646 204.255L89.7326 204.961L88.9693 205.499C88.6936 205.711 88.4179 205.965 88.1069 206.205L87.1315 207.096C86.7613 207.43 86.4097 207.784 86.0783 208.156C84.2802 209.999 82.7717 212.103 81.604 214.398C80.0479 217.424 79.088 220.721 78.7767 224.11L78.6495 225.523C78.6495 226.011 78.6495 226.499 78.6495 226.993C78.6495 227.488 78.6495 227.983 78.6919 228.485C78.7343 228.987 78.7979 229.496 78.8545 230.005L78.9393 230.782C78.9958 231.036 79.0453 231.291 79.1018 231.545C79.2079 232.061 79.3139 232.577 79.4199 233.108C79.5259 233.638 79.738 234.132 79.8864 234.655C80.0347 235.186 80.2141 235.708 80.4236 236.218C80.824 237.267 81.2963 238.287 81.8373 239.271C82.12 239.773 82.3745 240.289 82.6926 240.784L83.6892 242.197C83.8659 242.438 84.0214 242.692 84.2052 242.904L84.7848 243.611C85.1806 244.063 85.5553 244.537 85.9723 244.982C87.7213 246.762 89.6905 248.31 91.8319 249.591C92.3833 249.902 92.9629 250.178 93.5354 250.474C93.8252 250.616 94.108 250.785 94.4119 250.899L95.3166 251.259C96.5431 251.743 97.7991 252.15 99.077 252.475C100.389 252.762 101.718 252.961 103.056 253.069L104.074 253.16H106.124C106.467 253.17 106.81 253.151 107.149 253.104L109.22 252.892L111.27 252.468C116.846 251.166 121.845 248.078 125.506 243.675L126.799 242.028L127.923 240.275C128.114 239.991 128.285 239.693 128.432 239.384L128.898 238.465L129.358 237.554L129.732 236.606C130.237 235.36 130.655 234.08 130.984 232.775C131.271 231.49 131.469 230.186 131.577 228.874L131.669 227.898C131.669 227.58 131.669 227.255 131.669 226.93C131.669 226.287 131.669 225.643 131.669 225.007C131.582 223.748 131.407 222.496 131.146 221.261C130.898 220.063 130.573 218.882 130.171 217.727C129.966 217.154 129.704 216.61 129.464 216.052L129.117 215.232C128.99 214.956 128.835 214.709 128.7 214.447L127.852 212.899C127.555 212.404 127.202 211.938 126.884 211.485C126.24 210.554 125.531 209.668 124.763 208.835C124.405 208.417 124.02 208.023 123.611 207.654C123.208 207.287 122.841 206.891 122.431 206.545L121.18 205.562L120.565 205.074L119.915 204.65L118.628 203.823C118.211 203.548 117.745 203.357 117.306 203.117C116.868 202.876 116.437 202.664 115.999 202.459L114.67 201.929C111.493 200.698 108.11 200.091 104.703 200.141C102.129 200.152 99.571 200.557 97.1191 201.342C96.6402 201.474 96.1684 201.629 95.7054 201.809L94.4896 202.318C94.115 202.48 93.7828 202.608 93.4577 202.756L92.6307 203.201L91.5068 203.795L91.118 203.993C91.118 203.993 91.2453 203.908 91.4927 203.767L92.5953 203.138L93.4153 202.678C93.7192 202.523 94.0726 202.381 94.4472 202.219L95.663 201.689C96.1257 201.504 96.5975 201.344 97.0767 201.208C99.5366 200.396 102.106 199.965 104.696 199.929C108.134 199.861 111.551 200.459 114.762 201.689L116.112 202.212C116.55 202.417 116.988 202.65 117.434 202.876C117.879 203.102 118.345 203.3 118.769 203.583L120.07 204.417L120.734 204.841L121.356 205.329L122.622 206.318C123.039 206.665 123.413 207.068 123.816 207.442C124.232 207.813 124.624 208.21 124.99 208.63C125.757 209.471 126.465 210.364 127.11 211.302C127.428 211.789 127.817 212.256 128.093 212.758L128.948 214.313C129.089 214.581 129.252 214.836 129.372 215.111L129.732 215.946C129.959 216.504 130.22 217.055 130.439 217.635C130.849 218.811 131.182 220.013 131.436 221.233C131.698 222.485 131.878 223.753 131.973 225.028C132.008 225.672 131.973 226.322 132.008 226.979C132.008 227.304 132.008 227.63 132.008 227.962L131.924 228.944C131.813 230.276 131.612 231.598 131.323 232.903C130.988 234.222 130.568 235.518 130.065 236.783L129.683 237.744L129.216 238.67L128.743 239.596C128.596 239.914 128.423 240.219 128.227 240.508L127.096 242.282L125.781 243.95C122.07 248.42 116.998 251.552 111.341 252.871L109.262 253.295L107.142 253.514C106.797 253.555 106.45 253.572 106.103 253.563H103.982L102.958 253.471C100.278 253.287 97.646 252.664 95.1682 251.627L94.2493 251.266C93.9383 251.146 93.6556 250.969 93.3658 250.828C92.7862 250.524 92.1924 250.248 91.634 249.93C90.5357 249.276 89.4826 248.548 88.4816 247.753C87.5086 246.983 86.5855 246.152 85.7178 245.265C85.3008 244.82 84.9191 244.339 84.5233 243.851L83.9366 243.145C83.7458 242.911 83.5903 242.657 83.4135 242.438L82.4028 241.024C82.0847 240.522 81.8232 239.999 81.5404 239.497C80.9993 238.496 80.527 237.46 80.1268 236.394C79.9141 235.881 79.7346 235.354 79.5896 234.818C79.4341 234.288 79.2503 233.772 79.1231 233.249C78.9958 232.726 78.911 232.189 78.805 231.673C78.7484 231.411 78.699 231.15 78.6424 230.895L78.5576 230.111C78.5081 229.595 78.4516 229.086 78.4021 228.577C78.3526 228.068 78.4021 227.566 78.3597 227.064C78.3173 226.562 78.3597 226.075 78.3597 225.587L78.4869 224.173C78.8233 220.75 79.822 217.425 81.4273 214.383C82.6138 212.083 84.1466 209.978 85.9723 208.142C86.3107 207.771 86.6693 207.42 87.0467 207.089L88.0574 206.234C88.3755 205.979 88.6583 205.725 88.9339 205.527L89.7114 204.997L90.7646 204.29C90.9837 204.064 91.111 203.993 91.111 203.993Z" fill="#263238"/>
<path d="M106.33 236.959C112.049 236.29 116.142 231.111 115.473 225.392C114.803 219.673 109.624 215.58 103.905 216.249C98.1859 216.919 94.0928 222.098 94.7626 227.817C95.4324 233.536 100.611 237.629 106.33 236.959Z" fill="#263238"/>
<path d="M105.233 234.092C109.366 234.026 112.664 230.622 112.598 226.488C112.533 222.355 109.129 219.057 104.995 219.123C100.862 219.189 97.564 222.593 97.6296 226.726C97.6953 230.86 101.099 234.157 105.233 234.092Z" fill="#FF725E"/>
<path d="M78.5282 224.52C78.3862 224.567 78.2391 224.598 78.09 224.611L76.8177 224.795L72.1243 225.403L72.2374 225.283C71.9679 230.163 72.8796 235.037 74.8951 239.49C77.1606 244.516 80.3495 249.071 84.296 252.92L84.3737 252.998L84.3031 253.076L82.1189 255.627L81.5252 256.299C81.3838 256.447 81.3131 256.518 81.299 256.511C81.3493 256.42 81.4085 256.335 81.4757 256.256L82.02 255.55L84.1405 252.934V253.09C82.3789 251.453 80.7723 249.657 79.3411 247.725C77.4352 245.216 75.8292 242.493 74.5558 239.61C72.5153 235.109 71.6286 230.17 71.9758 225.24V225.127H72.0819L76.7823 224.633L78.0688 224.52C78.2214 224.501 78.3756 224.501 78.5282 224.52Z" fill="#263238"/>
<path d="M83.2227 196.062C83.3059 196.149 83.3772 196.247 83.4347 196.352L84.0072 197.214L86.1277 200.508H85.9652C88.2446 198.871 90.6981 197.492 93.2809 196.395C94.9073 195.732 96.5799 195.188 98.2853 194.769C100.159 194.338 102.069 194.078 103.989 193.991C107.763 193.839 111.533 194.351 115.129 195.504C117.848 196.349 120.434 197.572 122.812 199.137L122.897 199.201L122.841 199.285L120.855 202.325L120.317 203.124C120.259 203.218 120.19 203.306 120.112 203.385C120.152 203.28 120.204 203.18 120.268 203.088L120.756 202.261C121.222 201.512 121.858 200.473 122.657 199.172V199.321C120.276 197.804 117.701 196.615 115.002 195.787C109.61 194.076 103.86 193.832 98.3419 195.08C96.6571 195.489 95.0036 196.018 93.394 196.663C90.8227 197.735 88.3708 199.074 86.0783 200.657L85.9793 200.727L85.9228 200.621L83.9083 197.271L83.3923 196.373C83.3263 196.275 83.2695 196.171 83.2227 196.062Z" fill="#263238"/>
<path d="M141.797 219.169C141.701 219.218 141.599 219.256 141.493 219.282L140.61 219.572L137.252 220.589L137.323 220.455C138.03 223.154 138.318 225.946 138.178 228.732C137.969 232.432 137.075 236.06 135.542 239.434C132.991 244.967 129.253 249.871 124.593 253.797L124.501 253.867L124.43 253.789L121.419 250.616L120.628 249.753C120.532 249.659 120.447 249.555 120.373 249.442C120.483 249.521 120.585 249.611 120.677 249.711L121.518 250.524L124.6 253.62H124.437C126.444 251.89 128.28 249.973 129.922 247.894C132.044 245.261 133.825 242.371 135.224 239.292C136.747 235.95 137.644 232.356 137.867 228.69C138.037 225.937 137.799 223.174 137.16 220.491V220.384H137.259L140.645 219.466L141.55 219.232C141.629 219.2 141.712 219.179 141.797 219.169Z" fill="#263238"/>
<path d="M73.8221 219.656L73.1152 219.55C73.1152 219.466 74.4441 211.422 79.8867 205.534L80.4098 206.007C75.1156 211.747 73.8362 219.579 73.8221 219.656Z" fill="#FF725E"/>
<path d="M116.153 254.355C116.332 254.093 116.585 253.89 116.879 253.772C117.173 253.654 117.496 253.625 117.806 253.69C118.116 253.755 118.401 253.91 118.623 254.136C118.845 254.363 118.995 254.65 119.054 254.961C119.113 255.273 119.079 255.595 118.955 255.887C118.831 256.179 118.624 256.427 118.359 256.602C118.094 256.776 117.783 256.867 117.466 256.865C117.149 256.863 116.84 256.767 116.577 256.589C116.226 256.348 115.984 255.978 115.904 255.559C115.825 255.141 115.914 254.708 116.153 254.355Z" fill="#FF725E"/>
<path d="M110.753 256.122C110.932 255.86 111.184 255.658 111.478 255.539C111.773 255.421 112.095 255.392 112.406 255.457C112.716 255.522 113 255.677 113.222 255.904C113.444 256.13 113.595 256.417 113.654 256.728C113.713 257.04 113.678 257.362 113.555 257.654C113.431 257.946 113.223 258.195 112.958 258.369C112.693 258.543 112.383 258.635 112.066 258.632C111.749 258.63 111.439 258.534 111.177 258.356C110.825 258.115 110.583 257.745 110.504 257.327C110.424 256.908 110.514 256.475 110.753 256.122Z" fill="#FF725E"/>
<path d="M104.965 256.949C105.143 256.686 105.396 256.482 105.69 256.363C105.984 256.244 106.307 256.214 106.618 256.279C106.929 256.343 107.214 256.498 107.436 256.724C107.659 256.95 107.81 257.238 107.869 257.55C107.929 257.861 107.894 258.184 107.77 258.476C107.646 258.769 107.438 259.018 107.173 259.192C106.907 259.366 106.596 259.457 106.279 259.454C105.961 259.451 105.652 259.354 105.389 259.176C105.038 258.936 104.796 258.567 104.717 258.15C104.637 257.733 104.727 257.301 104.965 256.949Z" fill="#FF725E"/>
<path d="M159.165 279.412H46.792V285.548H159.165V279.412Z" fill="#263238"/>
<path d="M65.623 282.473L72.9105 256.271C72.9105 256.271 83.1525 269.806 103.453 269.375C123.753 268.944 137.119 256.271 137.119 256.271L143.622 282.473H65.623Z" fill="#263238"/>
<path d="M159.159 279.412C159.159 279.511 134.066 279.596 103.121 279.596C72.1756 279.596 47.083 279.511 47.083 279.412C47.083 279.313 72.1686 279.229 103.121 279.229C134.073 279.229 159.159 279.306 159.159 279.412Z" fill="#455A64"/>
<path d="M137.118 256.271C137.086 256.324 137.048 256.374 137.005 256.419L136.645 256.822C136.313 257.168 135.874 257.727 135.231 258.335C133.398 260.124 131.368 261.701 129.181 263.035C125.936 265.011 122.442 266.545 118.79 267.594C116.635 268.212 114.445 268.698 112.231 269.05C109.852 269.409 107.454 269.63 105.049 269.715C100.382 269.837 95.7255 269.219 91.2519 267.884C87.6047 266.813 84.112 265.274 80.8614 263.304C78.6675 261.989 76.5995 260.474 74.6837 258.78C73.9768 258.2 73.5103 257.677 73.164 257.366L72.7823 256.977C72.7367 256.938 72.6963 256.893 72.6621 256.843C72.6621 256.843 72.7116 256.843 72.8035 256.956L73.2134 257.31C73.581 257.614 74.0687 258.115 74.7755 258.681C76.7195 260.323 78.8005 261.797 80.9957 263.084C82.509 263.977 84.0712 264.784 85.6749 265.502C87.5145 266.308 89.4032 266.998 91.3296 267.566C95.7639 268.865 100.374 269.463 104.993 269.34C107.383 269.258 109.767 269.039 112.132 268.683C114.33 268.341 116.507 267.869 118.649 267.269C122.281 266.243 125.763 264.744 129.004 262.809C131.19 261.503 133.23 259.968 135.09 258.228C135.797 257.642 136.221 257.098 136.567 256.772L136.956 256.398C137.005 256.349 137.059 256.306 137.118 256.271Z" fill="#455A64"/>
<path d="M171.76 153.893C169.336 156.282 165.738 156.289 162.571 156.451C159.652 156.6 156.047 156.946 154.089 159.455C152.131 161.965 154.04 164.75 156.733 165.506C159.921 166.404 163.094 164.849 165.858 163.385C169.039 161.661 173.23 159.477 176.609 162.014C177.061 162.353 177.5 161.59 177.054 161.251C174.892 159.625 171.965 159.752 169.527 160.636C166.508 161.724 163.936 163.845 160.797 164.615C159.134 165.125 157.338 164.97 155.786 164.184C154.202 163.251 153.665 161.47 154.824 159.943C156.874 157.349 160.896 157.406 163.879 157.264C166.862 157.123 170.127 156.727 172.361 154.508C172.428 154.422 172.462 154.314 172.455 154.205C172.448 154.096 172.401 153.993 172.324 153.916C172.246 153.84 172.143 153.794 172.034 153.788C171.925 153.783 171.817 153.817 171.732 153.885L171.76 153.893Z" fill="#263238"/>
<path d="M160.798 215.578C166.749 220.349 174.892 221.162 182.066 219.034C189.594 216.794 195.581 211.259 199.737 204.728C202.123 200.888 204.011 196.76 205.356 192.443C205.533 191.906 204.65 191.673 204.501 192.21C202.183 199.455 198.507 206.46 192.902 211.705C187.488 216.758 180.292 219.713 172.828 219.218C168.686 219.002 164.709 217.522 161.434 214.977C160.995 214.624 160.366 215.246 160.812 215.599L160.798 215.578Z" fill="#263238"/>
<path d="M167.844 209.216C171.331 211.571 175.251 213.211 179.376 214.042C183.501 214.873 187.749 214.879 191.876 214.058C197.945 212.745 203.487 209.663 207.804 205.2C212.121 200.738 215.017 195.095 216.128 188.987C216.227 188.436 215.379 188.195 215.28 188.754C213.9 196.319 209.749 203.099 203.638 207.767C200.437 210.173 196.786 211.912 192.901 212.883C189.016 213.855 184.976 214.038 181.019 213.422C176.437 212.751 172.068 211.042 168.247 208.425C167.773 208.1 167.335 208.863 167.802 209.188L167.844 209.216Z" fill="#263238"/>
<path d="M170.347 151.009L174.206 161.328L213.605 138.498L203.321 127.393L183.755 130.44L170.347 151.009Z" fill="#263238"/>
<path d="M191.954 198.275L201.815 193.355L175.012 156.543L165.038 167.93L170.099 187.071L191.954 198.275Z" fill="#263238"/>
<path d="M207.715 194.424C224.275 192.038 235.766 176.678 233.379 160.118C230.993 143.558 215.633 132.067 199.073 134.454C182.513 136.84 171.022 152.199 173.409 168.76C175.795 185.32 191.155 196.81 207.715 194.424Z" fill="#E0E0E0"/>
<path d="M222.88 173.168C222.88 173.168 222.915 173.055 222.993 172.836L223.339 171.881L223.608 171.175C223.693 170.913 223.756 170.616 223.841 170.305C224.058 169.585 224.224 168.851 224.336 168.107C224.693 166.074 224.743 163.999 224.484 161.95C224.153 159.241 223.309 156.619 221.996 154.225C220.408 151.319 218.162 148.826 215.437 146.944C214.693 146.43 213.913 145.97 213.104 145.566C212.694 145.361 212.291 145.135 211.86 144.951L210.546 144.442C210.326 144.357 210.107 144.258 209.881 144.195L209.174 144.004C208.708 143.884 208.248 143.735 207.761 143.629C206.794 143.436 205.817 143.303 204.834 143.233C203.827 143.166 202.816 143.166 201.809 143.233C201.3 143.269 200.791 143.354 200.275 143.417C199.76 143.473 199.249 143.567 198.748 143.7C197.717 143.926 196.701 144.221 195.709 144.584C194.71 144.99 193.74 145.462 192.804 145.997C190.873 147.08 189.128 148.467 187.637 150.104C184.53 153.481 182.609 157.779 182.166 162.346C181.937 164.546 182.066 166.768 182.548 168.927C182.777 169.98 183.077 171.017 183.445 172.03C183.837 173.002 184.293 173.946 184.81 174.857C185.045 175.319 185.315 175.764 185.615 176.186C185.912 176.61 186.195 177.041 186.506 177.451C187.13 178.244 187.808 178.993 188.535 179.692C189.242 180.378 189.993 181.018 190.782 181.608C191.178 181.897 191.595 182.145 191.998 182.406L192.599 182.795C192.804 182.922 193.016 183.014 193.228 183.127L194.486 183.77C194.903 183.968 195.349 184.117 195.773 184.286C196.613 184.619 197.475 184.893 198.353 185.106C201.291 185.806 204.344 185.877 207.312 185.313C210.28 184.749 213.094 183.563 215.571 181.834C217.272 180.654 218.785 179.224 220.06 177.593C220.541 177.014 220.979 176.4 221.367 175.755C221.544 175.479 221.721 175.232 221.862 174.999L222.208 174.334C222.413 173.945 222.569 173.627 222.689 173.437C222.809 173.246 222.859 173.133 222.859 173.133C222.859 173.133 222.816 173.239 222.717 173.451L222.272 174.37L221.94 175.076C221.805 175.317 221.636 175.571 221.459 175.854C221.077 176.505 220.647 177.126 220.173 177.713C218.907 179.364 217.395 180.811 215.691 182.003C213.196 183.772 210.354 184.989 207.352 185.575C204.351 186.162 201.259 186.103 198.282 185.403C197.39 185.19 196.514 184.916 195.66 184.583C195.228 184.407 194.783 184.258 194.352 184.06L193.073 183.417C192.86 183.304 192.641 183.205 192.436 183.078L191.821 182.682C191.411 182.42 190.987 182.166 190.592 181.876C189.786 181.282 189.021 180.635 188.301 179.939C187.559 179.23 186.867 178.47 186.23 177.663C185.912 177.246 185.63 176.808 185.326 176.377C185.019 175.947 184.742 175.496 184.499 175.027C183.408 173.148 182.629 171.105 182.194 168.976C181.704 166.778 181.57 164.516 181.799 162.276C182.248 157.63 184.204 153.259 187.368 149.828C188.884 148.162 190.66 146.754 192.627 145.658C193.578 145.119 194.565 144.647 195.582 144.244C196.591 143.878 197.623 143.578 198.671 143.347C199.181 143.214 199.701 143.12 200.226 143.064C200.749 143 201.265 142.915 201.781 142.88C202.807 142.806 203.837 142.806 204.863 142.88C205.86 142.948 206.852 143.085 207.831 143.29C208.312 143.396 208.785 143.544 209.245 143.665L209.952 143.863C210.185 143.933 210.404 144.032 210.659 144.117L211.987 144.633C212.426 144.824 212.829 145.057 213.246 145.262C214.064 145.679 214.853 146.151 215.606 146.676C218.115 148.425 220.222 150.689 221.787 153.317C223.352 155.945 224.339 158.876 224.682 161.915C224.933 163.98 224.863 166.071 224.477 168.114C224.356 168.861 224.179 169.599 223.947 170.319C223.855 170.637 223.785 170.927 223.693 171.189L223.41 171.896L223.028 172.843C222.936 173.034 222.88 173.168 222.88 173.168Z" fill="#263238"/>
<path d="M210.234 169.282C212.889 165.499 211.974 160.279 208.191 157.624C204.407 154.969 199.188 155.884 196.533 159.667C193.878 163.451 194.793 168.67 198.576 171.325C202.359 173.98 207.579 173.066 210.234 169.282Z" fill="#263238"/>
<path d="M208.862 166.912C208.377 167.997 207.581 168.914 206.575 169.546C205.569 170.178 204.398 170.498 203.21 170.465C202.022 170.432 200.871 170.048 199.902 169.36C198.932 168.673 198.189 167.714 197.765 166.604C197.341 165.494 197.255 164.283 197.519 163.124C197.784 161.966 198.385 160.911 199.248 160.095C200.112 159.278 201.198 158.736 202.369 158.537C203.54 158.337 204.745 158.49 205.829 158.975C207.283 159.627 208.419 160.828 208.987 162.317C209.555 163.805 209.51 165.457 208.862 166.912Z" fill="#FF725E"/>
<path d="M221.966 153.836C222.038 153.739 222.121 153.652 222.214 153.574L222.97 152.868L225.797 150.337V150.5C223.774 147.147 220.974 144.33 217.633 142.286C213.865 139.968 209.696 138.376 205.342 137.593H205.229V137.487C205.356 136.377 205.462 135.479 205.54 134.801C205.562 134.481 205.614 134.164 205.695 133.854C205.71 134.175 205.698 134.496 205.66 134.815C205.61 135.522 205.54 136.398 205.455 137.508L205.356 137.381C207.268 137.68 209.149 138.153 210.975 138.795C213.373 139.601 215.669 140.683 217.817 142.018C221.208 144.089 224.026 146.976 226.017 150.415L226.066 150.514L225.988 150.577L223.076 153.016L222.27 153.666C222.079 153.779 221.973 153.85 221.966 153.836Z" fill="#263238"/>
<path d="M231.693 174.843C231.597 174.825 231.505 174.794 231.417 174.751L230.619 174.44L227.791 173.21L227.947 173.147L226.752 175.974C226.502 176.513 226.221 177.037 225.911 177.543C225.6 178.073 225.303 178.646 224.95 179.211C223.308 181.673 221.268 183.845 218.913 185.637C216.475 187.435 213.737 188.787 210.827 189.63C208.641 190.303 206.371 190.66 204.084 190.69H203.978V190.584C203.978 189.369 203.978 188.393 203.936 187.672C203.936 187.361 203.936 187.107 203.936 186.902C203.926 186.812 203.926 186.722 203.936 186.633C203.962 186.718 203.977 186.806 203.978 186.895C203.978 187.107 203.978 187.361 204.027 187.665C204.063 188.372 204.112 189.362 204.169 190.577L204.063 190.471C206.319 190.388 208.554 190 210.707 189.319C213.571 188.452 216.264 187.096 218.666 185.311C220.987 183.545 223.007 181.413 224.646 178.999C224.999 178.448 225.303 177.883 225.614 177.359C225.926 176.863 226.209 176.348 226.462 175.819C226.922 174.808 227.339 173.882 227.706 173.062L227.756 172.956L227.855 172.998L230.682 174.327L231.431 174.695C231.615 174.78 231.7 174.829 231.693 174.843Z" fill="#263238"/>
<path d="M182.398 185.926C182.582 185.646 182.782 185.377 182.999 185.121L184.759 182.922V183.071C183.067 181.602 181.613 179.88 180.447 177.967C178.909 175.418 177.861 172.604 177.358 169.669C176.892 166.967 176.781 164.215 177.026 161.484C177.194 159.347 177.578 157.232 178.171 155.172L178.206 155.066H178.312L181.733 155.829L182.645 156.048C182.752 156.065 182.857 156.096 182.956 156.14C182.851 156.156 182.743 156.156 182.638 156.14L181.712 155.985L178.263 155.327L178.404 155.25C177.856 157.301 177.505 159.401 177.358 161.519C177.139 164.219 177.263 166.936 177.726 169.605C178.221 172.498 179.239 175.277 180.73 177.805C181.865 179.701 183.27 181.423 184.9 182.915L184.985 182.993L184.914 183.071L183.076 185.191C182.874 185.457 182.647 185.703 182.398 185.926Z" fill="#263238"/>
<path d="M229.7 167.068L228.993 166.962C229.919 160.791 227.247 155.031 227.219 154.946L227.855 154.649C229.568 158.55 230.205 162.838 229.7 167.068Z" fill="#FF725E"/>
<path d="M183.544 151.009C183.544 151.263 183.468 151.512 183.327 151.723C183.185 151.935 182.985 152.1 182.749 152.197C182.514 152.295 182.256 152.32 182.006 152.27C181.757 152.221 181.527 152.098 181.347 151.918C181.168 151.738 181.045 151.509 180.995 151.26C180.946 151.01 180.971 150.751 181.069 150.516C181.166 150.281 181.331 150.08 181.542 149.939C181.754 149.798 182.003 149.722 182.257 149.722C182.598 149.722 182.926 149.858 183.167 150.099C183.408 150.34 183.544 150.667 183.544 151.009Z" fill="#FF725E"/>
<path d="M185.041 148.69C185.752 148.69 186.328 148.114 186.328 147.404C186.328 146.693 185.752 146.117 185.041 146.117C184.331 146.117 183.755 146.693 183.755 147.404C183.755 148.114 184.331 148.69 185.041 148.69Z" fill="#FF725E"/>
<path d="M189.806 144.244C189.807 144.5 189.732 144.751 189.591 144.965C189.45 145.178 189.248 145.345 189.012 145.444C188.776 145.543 188.516 145.57 188.264 145.521C188.013 145.472 187.782 145.349 187.6 145.168C187.419 144.988 187.295 144.757 187.244 144.506C187.194 144.255 187.219 143.995 187.317 143.758C187.414 143.521 187.58 143.319 187.793 143.176C188.006 143.034 188.256 142.958 188.512 142.958C188.682 142.957 188.85 142.989 189.007 143.054C189.164 143.118 189.306 143.213 189.426 143.332C189.547 143.452 189.642 143.594 189.707 143.75C189.772 143.907 189.806 144.075 189.806 144.244Z" fill="#FF725E"/>
<path d="M123.399 189.743L170.107 161.328C170.107 161.328 166.693 173.945 175.43 185.007C184.053 195.928 193.1 198.324 193.1 198.324L147.813 227.304C147.595 218.826 144.782 210.619 139.756 203.788C131.295 192.203 123.399 189.743 123.399 189.743Z" fill="#E0E0E0"/>
<path d="M178.729 188.782L178.58 188.895L178.121 189.213L176.347 190.401L169.78 194.698L160.019 201.06L157.191 202.89C156.229 203.602 155.117 204.085 153.94 204.304C152.686 204.502 151.401 204.352 150.226 203.871C149.051 203.39 148.03 202.596 147.275 201.576C146.893 201.054 146.584 200.483 146.356 199.879C146.139 199.28 146.001 198.655 145.946 198.02C145.85 196.794 146.084 195.565 146.623 194.46C147.163 193.355 147.988 192.415 149.013 191.736C149.989 191.122 150.957 190.563 151.897 189.991L161.878 184.004L168.628 179.996L170.466 178.922L170.954 178.653C171.006 178.619 171.063 178.593 171.123 178.575L170.975 178.688L170.508 178.992L168.699 180.123L162.012 184.23L152.074 190.28C151.141 190.853 150.173 191.418 149.211 192.033C148.255 192.664 147.485 193.537 146.978 194.564C146.444 195.642 146.218 196.846 146.323 198.045C146.428 199.243 146.861 200.39 147.574 201.359C148.287 202.328 149.252 203.082 150.365 203.54C151.478 203.997 152.695 204.139 153.883 203.951C155.014 203.739 156.082 203.275 157.008 202.593L159.835 200.777L169.639 194.507L176.269 190.309L178.078 189.178L178.559 188.895C178.667 188.815 178.724 188.777 178.729 188.782Z" fill="white"/>
<path d="M160.642 219.112C160.659 218.893 160.704 218.677 160.776 218.469C160.903 218.01 161.066 217.416 161.264 216.681L163.08 210.319V210.263H163.13L170.905 205.103C175.146 202.275 179.012 199.773 181.811 197.957C183.183 197.08 184.314 196.366 185.141 195.836L186.059 195.278C186.161 195.202 186.273 195.143 186.392 195.101C186.305 195.191 186.208 195.269 186.102 195.334L185.218 195.956L181.953 198.183C179.189 200.049 175.351 202.608 171.103 205.414L163.328 210.531L163.391 210.446C162.6 213.019 161.935 215.182 161.447 216.758C161.214 217.465 161.023 218.073 160.882 218.526C160.815 218.726 160.735 218.922 160.642 219.112Z" fill="#263238"/>
<path d="M130.283 193.8C130.6 193.54 130.935 193.304 131.287 193.094L134.114 191.242C136.503 189.694 139.818 187.566 143.494 185.248L148.908 181.841L148.838 181.94C149.481 179.303 150.039 177.056 150.442 175.394L150.93 173.535C150.981 173.311 151.05 173.092 151.135 172.878C151.132 173.117 151.099 173.354 151.036 173.585C150.93 174.08 150.803 174.702 150.64 175.465L149.163 182.046V182.109L149.106 182.152L143.678 185.545C140.002 187.863 136.666 189.955 134.234 191.447C133.061 192.154 132.114 192.754 131.351 193.2C131.011 193.428 130.654 193.629 130.283 193.8Z" fill="#263238"/>
<path d="M145.827 102.1L148.063 100.718L147.313 99.503L145.076 100.885L145.827 102.1Z" fill="#E0E0E0"/>
<path d="M148.616 96.6604L160.829 89.1147L154.038 78.1226L141.825 85.6683L148.616 96.6604Z" fill="#263238"/>
<path d="M149.032 100.122L163.319 91.2941L161.659 88.6062L147.371 97.4337L149.032 100.122Z" fill="#263238"/>
<path d="M146.106 106.614L168.456 92.6784L166.684 89.8366L144.334 103.773L146.106 106.614Z" fill="#263238"/>
<path d="M155.689 115.896L173.915 104.635L166.778 93.0842L148.552 104.345L155.689 115.896Z" fill="#FF725E"/>
<path d="M160.417 80.1414C161.562 83.619 164.658 85.6618 167.485 87.7116C169.124 88.7838 170.56 90.1383 171.726 91.7123C172.897 93.5155 173.412 95.6672 173.182 97.8052C173.133 98.3707 174.016 98.3707 174.066 97.8052C174.44 93.7692 172.468 90.4895 169.393 88.0509C166.319 85.6123 162.537 83.7463 161.265 79.9082C161.088 79.371 160.24 79.5972 160.417 80.1414Z" fill="#263238"/>
<path d="M148.845 103.191C146.256 101.844 144.084 99.8151 142.563 97.3239C141.042 94.8326 140.23 91.9734 140.215 89.0546C140.201 88.947 140.149 88.8482 140.067 88.7765C139.986 88.7048 139.881 88.6653 139.773 88.6653C139.664 88.6653 139.56 88.7048 139.478 88.7765C139.397 88.8482 139.345 88.947 139.331 89.0546C139.347 92.1276 140.2 95.1381 141.798 97.7632C143.395 100.388 145.678 102.529 148.4 103.955C148.902 104.216 149.354 103.453 148.845 103.191Z" fill="#263238"/>
<path d="M169.371 154.79L148.526 109.086C155.475 110.281 160.359 108.676 160.783 101.064L171.951 93.642L205.596 128.425C197.144 129.103 189.102 132.354 182.553 137.741C171.407 146.803 169.371 154.79 169.371 154.79Z" fill="#E0E0E0"/>
<path d="M165.152 98.1728C165.203 98.2161 165.248 98.266 165.286 98.3212L165.647 98.7665L166.99 100.505L171.895 106.93L179.119 116.494C179.826 117.399 180.497 118.318 181.204 119.265C181.994 120.193 182.684 121.202 183.261 122.276C183.781 123.477 183.95 124.8 183.75 126.093C183.55 127.386 182.988 128.597 182.13 129.584C181.695 130.086 181.187 130.519 180.624 130.871C180.074 131.23 179.47 131.502 178.836 131.677C177.596 132.03 176.281 132.03 175.04 131.677C173.843 131.337 172.76 130.677 171.909 129.768C171.514 129.328 171.157 128.855 170.842 128.355L169.881 126.941L163.166 117.01L158.663 110.295L157.454 108.457L157.15 107.977C157.111 107.925 157.08 107.868 157.059 107.807C157.104 107.852 157.145 107.901 157.179 107.955C157.271 108.076 157.377 108.231 157.518 108.415L158.783 110.217L163.378 116.861L170.156 126.757L171.125 128.171C171.429 128.662 171.779 129.124 172.171 129.549C172.994 130.423 174.043 131.053 175.202 131.369C176.361 131.684 177.584 131.673 178.737 131.337C179.942 130.983 181.021 130.291 181.847 129.344C182.659 128.409 183.191 127.263 183.383 126.04C183.574 124.816 183.417 123.563 182.929 122.424C182.363 121.374 181.693 120.385 180.928 119.47L178.857 116.699L171.69 107.086L166.884 100.59L165.59 98.8089L165.265 98.3424L165.152 98.1728Z" fill="white"/>
<path d="M196.924 119.449C196.666 119.443 196.41 119.41 196.16 119.35L194.04 118.961L186.576 117.498H186.512L186.477 117.448C184.943 115.391 183.19 113.03 181.324 110.535L173.315 99.6572L170.919 96.328L170.283 95.4162C170.203 95.3104 170.135 95.1967 170.078 95.0769C170.078 95.0769 170.177 95.1688 170.34 95.3667L171.046 96.2431L173.542 99.5017C175.662 102.329 178.489 106.132 181.642 110.345L186.759 117.279L186.66 117.222L194.103 118.812L196.224 119.286C196.461 119.325 196.694 119.379 196.924 119.449Z" fill="#263238"/>
<path d="M175.909 144.315C175.909 144.315 175.747 144.166 175.492 143.848C175.238 143.53 174.884 143.064 174.446 142.477C173.577 141.304 172.375 139.65 171.032 137.777L171.152 137.854L169.922 137.635C167.371 137.176 165.059 136.745 163.391 136.413C162.557 136.25 161.878 136.109 161.412 136.003C161.169 135.966 160.932 135.899 160.705 135.805C160.954 135.792 161.203 135.811 161.447 135.861C161.921 135.925 162.599 136.024 163.441 136.158C165.123 136.427 167.441 136.815 169.993 137.275L171.223 137.494H171.293L171.336 137.551C172.672 139.431 173.831 141.085 174.658 142.322C175.068 142.922 175.365 143.417 175.605 143.735C175.734 143.913 175.836 144.108 175.909 144.315Z" fill="#263238"/>
<path d="M162.593 95.2889C162.508 95.3384 162.134 94.8931 161.759 94.2852C161.385 93.6773 161.151 93.1472 161.236 93.0907C161.321 93.0341 161.696 93.4865 162.07 94.0944C162.445 94.7022 162.678 95.2324 162.593 95.2889Z" fill="#455A64"/>
<path d="M157.771 98.3212C157.686 98.3707 157.269 97.8547 156.845 97.162C156.421 96.4693 156.138 95.8756 156.23 95.819C156.322 95.7625 156.732 96.2785 157.156 96.9712C157.58 97.6639 157.856 98.2435 157.771 98.3212Z" fill="#455A64"/>
<path d="M152.739 101.269C152.655 101.318 152.245 100.816 151.828 100.138C151.41 99.4592 151.121 98.8584 151.22 98.809C151.319 98.7595 151.722 99.2613 152.139 99.9399C152.556 100.618 152.867 101.212 152.739 101.269Z" fill="#455A64"/>
<path d="M164.111 90.8088L166.348 89.4267L165.597 88.212L163.36 89.5941L164.111 90.8088Z" fill="#E0E0E0"/>
<path d="M167.073 89.1111C166.81 89.3259 166.529 89.5174 166.232 89.6837L163.886 91.1327L156.11 95.8755L148.378 100.675L146.031 102.124C145.756 102.32 145.46 102.483 145.147 102.612C145.398 102.386 145.667 102.182 145.953 102.004C146.49 101.629 147.268 101.099 148.243 100.456C150.18 99.1694 152.894 97.4306 155.92 95.5646C158.945 93.6985 161.723 92.0304 163.744 90.9065C164.755 90.3269 165.582 89.8675 166.155 89.5565C166.447 89.3806 166.754 89.2316 167.073 89.1111Z" fill="#455A64"/>
<path d="M161.483 88.8214C160.85 89.3069 160.181 89.7441 159.482 90.129L154.57 93.1543L149.671 96.1936C149.014 96.6449 148.324 97.0465 147.607 97.3953C148.209 96.8725 148.852 96.3997 149.53 95.9816C150.753 95.1475 152.463 94.0307 154.379 92.8503C156.294 91.6699 158.062 90.6308 159.327 89.9169C160.013 89.4917 160.734 89.1252 161.483 88.8214Z" fill="#455A64"/>
<path d="M169.942 114.606L170.153 114.464C170.368 114.319 170.61 114.217 170.865 114.166C171.12 114.114 171.382 114.113 171.637 114.163C171.892 114.213 172.135 114.312 172.352 114.456C172.568 114.6 172.755 114.785 172.9 115L177.317 121.561C177.611 121.998 177.72 122.534 177.619 123.051C177.518 123.568 177.215 124.024 176.779 124.318L176.567 124.46C176.132 124.753 175.598 124.862 175.083 124.761C174.568 124.66 174.114 124.359 173.82 123.924L169.403 117.363C169.257 117.147 169.154 116.904 169.102 116.648C169.05 116.392 169.048 116.129 169.099 115.872C169.149 115.616 169.249 115.372 169.394 115.155C169.538 114.937 169.724 114.751 169.942 114.606Z" fill="#FF725E"/>
<path d="M108.047 63.9832L95.6064 54.5257L98.9144 48.6519L111.722 57.1976L108.047 63.9832Z" fill="#263238"/>
<path d="M116.584 12.8861L121.836 20.3715L128.332 32.317L132.389 43.0043L140.298 41.209L138.079 34.5011L130.014 19.7848L122.373 8.58145L116.584 12.8861Z" fill="#263238"/>
<path d="M111.722 32.2816C111.722 32.2816 122.324 48.765 122.607 48.6024C122.89 48.4399 131.131 43.7747 131.131 43.7747L118.111 27.666L111.722 32.2816Z" fill="#263238"/>
<path d="M100.816 41.8451L114.225 55.5294L121.328 49.2032L105.863 35.9218L95.5712 27.666L90.376 33.8508L100.816 41.8451Z" fill="#263238"/>
<path d="M152.669 57.0632C150.365 56.9077 148.16 51.6701 147.085 49.6273C145.855 47.2877 144.541 44.1564 143.134 42.354L132.892 46.0366C124.802 50.371 117.585 56.1685 111.609 63.135C110.952 63.7586 110.524 64.5851 110.394 65.4816C110.439 66.2784 110.73 67.0415 111.228 67.6658C113.648 71.3246 116.837 74.412 120.572 76.7132C121.387 77.2826 122.333 77.6375 123.322 77.7452C124.735 77.8088 125.965 76.996 127.11 76.2185L144.717 64.3154C145.912 63.5025 159.823 66.1178 160.487 64.8314C161.385 63.0855 161.158 57.6287 152.669 57.0632Z" fill="#263238"/>
<path d="M156.831 39.767C156.831 39.767 159.249 44.9905 159.856 46.8849C160.464 48.7792 157.828 52.8364 157.828 52.8364L152.173 52.4618L150.837 48.2208L149.077 45.2238L156.831 39.767Z" fill="#263238"/>
<path d="M161.872 83.3999C161.95 82.8698 161.872 79.0529 161.667 76.169C161.462 73.2851 162.579 66.3864 162.515 64.3083C162.515 64.3083 150.69 63.0855 150.019 62.3998C149.347 61.7142 145.622 58.59 143.954 59.0141C142.286 59.4382 116.854 76.2397 116.592 76.4022C116.331 76.5648 130.962 93.8116 134.765 96.646C138.568 99.4804 139.261 98.4555 139.261 98.4555C139.261 98.4555 137.274 93.2885 138.971 91.1539C140.667 89.0193 142.95 87.2522 148.499 88.0438C154.048 88.8355 154.995 89.5777 158.105 87.7752C159.867 86.8442 161.213 85.2813 161.872 83.3999Z" fill="#E0E0E0"/>
<path d="M141.43 40.3184C141.43 40.3184 145.756 46.5314 144.964 48.97C144.173 51.4086 135.5 55.4163 126.368 62.1101C119.299 67.2841 115.228 72.338 114.012 72.2814C112.796 72.2249 108.082 65.1636 107.82 64.6688C106.788 62.7462 111.892 54.7236 119.087 49.3446C126.283 43.9656 140.059 39.1026 141.43 40.3184Z" fill="#E0E0E0"/>
<path d="M118.635 1.18796C116.302 -1.01737 113.249 0.523532 113.249 0.523532C111.524 1.58378 110.874 3.9022 111.891 6.10753C112.909 8.31285 116.069 14.321 116.5 14.2856C119.985 13.2183 122.777 11.7622 124.558 9.72652C124.593 9.72652 120.543 2.98332 118.635 1.18796Z" fill="#E0E0E0"/>
<path d="M125.582 12.3984L118.888 16.8019C118.783 16.8674 118.692 16.9533 118.62 17.0547C118.548 17.1562 118.498 17.271 118.471 17.3923C118.445 17.5136 118.443 17.6391 118.466 17.7611C118.489 17.8831 118.537 17.9992 118.606 18.1025C119.885 20.0322 123.172 24.98 124.43 26.8885C124.577 27.1019 124.795 27.2552 125.046 27.3201C125.297 27.385 125.562 27.3573 125.794 27.2419C126.819 26.74 128.494 25.906 129.392 25.4041C131.011 24.4994 132.997 23.1847 132.997 22.1244C132.997 21.0642 128.756 15.0561 127.045 12.6528C126.879 12.433 126.635 12.2846 126.364 12.2373C126.092 12.1901 125.813 12.2476 125.582 12.3984Z" fill="#E0E0E0"/>
<path d="M134.793 25.185C134.637 25.0149 134.427 24.9028 134.199 24.8669C133.97 24.831 133.736 24.8733 133.535 24.9871C131.415 26.0544 125.597 29.0797 125.562 29.6805C125.513 30.3873 129.4 37.9999 130.736 39.1097C132.072 40.2194 140.384 36.3742 140.151 35.0312C139.946 33.8225 136.61 27.4115 134.793 25.185Z" fill="#E0E0E0"/>
<path d="M95.2588 8.94902C95.5557 8.7299 98.2982 7.06884 100.956 8.90661C103.614 10.7444 107.6 14.4199 107.876 15.4519C108.152 16.4839 108.455 18.4347 107.021 19.396C105.586 20.3573 102.073 23.2271 101.366 22.8454C100.659 22.4637 99.4575 21.6296 97.2521 18.7599C95.0468 15.8901 91.2935 11.9107 95.2588 8.94902Z" fill="#E0E0E0"/>
<path d="M108.095 16.7454C108.095 16.7454 109.834 17.8339 109.891 18.2792C109.947 18.7245 110.555 19.9403 109.558 20.8662C108.289 21.862 106.947 22.7621 105.544 23.5593C105.299 23.7701 104.999 23.9062 104.68 23.9513C104.36 23.9965 104.034 23.9487 103.741 23.8137L102.257 22.6475L108.095 16.7454Z" fill="#263238"/>
<path d="M121.307 30.2035C121.587 30.1556 121.875 30.1983 122.129 30.3255C122.384 30.4526 122.591 30.6575 122.72 30.9104C123.357 31.8292 128.828 38.3533 128.623 39.2369C128.418 40.1204 120.141 45.2379 119.632 44.8138C119.123 44.3897 113.553 36.5085 113.807 35.6674C114.062 34.8262 120.946 30.2106 121.307 30.2035Z" fill="#E0E0E0"/>
<path d="M109.396 38.5159C109.608 38.4664 109.905 37.9222 110.81 38.7633C111.715 39.6045 117.489 44.418 117.631 45.6974C117.772 46.9767 112.619 52.8364 111.177 52.2992C109.735 51.762 105.48 47.521 104.01 45.5843C104.01 45.5843 103.367 44.7361 103.72 44.1706C103.996 43.7324 109.396 38.5159 109.396 38.5159Z" fill="#E0E0E0"/>
<path d="M107.375 36.2116C107.283 35.8723 100.215 30.2035 98.957 29.9985C98.4056 29.9137 94.4968 33.8437 94.2707 35.1443C94.1244 35.8005 94.1441 36.4829 94.328 37.1296C94.5119 37.7763 94.8542 38.367 95.3238 38.8481C96.4548 40.184 100.639 43.6051 101.869 42.9124C103.099 42.2197 106.513 38.8269 106.513 38.8269C106.513 38.8269 107.757 37.5829 107.375 36.2116Z" fill="#E0E0E0"/>
<path d="M89.9587 23.8138C87.5837 23.0009 85.2582 23.6512 84.304 25.6727C83.3497 27.6943 84.8553 30.2601 85.9721 31.5536C87.0889 32.8471 89.8668 35.0878 91.4854 35.003C93.1889 34.0911 95.6487 31.1366 96.6736 28.7757C96.7593 28.5628 96.7711 28.3272 96.7071 28.1068C96.643 27.8863 96.5067 27.6938 96.3202 27.56C94.3342 26.0957 92.2024 24.8403 89.9587 23.8138Z" fill="#E0E0E0"/>
<path d="M91.9662 45.2732L92.2489 45.1036C92.2489 45.1036 97.9955 46.9626 99.1264 48.143C100.257 49.3234 99.0416 51.1258 98.8154 51.6772C98.5892 52.2285 96.801 55.5436 95.7266 55.5436C94.0351 55.4002 92.4229 54.7637 91.0897 53.7129C90.4953 53.2524 89.931 52.7542 89.4004 52.2214L91.9662 45.2732Z" fill="#E0E0E0"/>
<path d="M101.627 49.8464C101.919 49.6954 102.247 49.6292 102.574 49.6556C102.97 49.7475 109.473 54.0733 109.926 54.9144C110.378 55.7556 109.848 56.9713 109.261 58.1305C108.674 59.2898 106.215 62.626 105.225 62.4988C104.235 62.3716 98.6798 58.1164 98.1072 57.3389C97.9397 57.1159 97.8195 56.8612 97.7539 56.5901C97.6882 56.3191 97.6786 56.0375 97.7255 55.7626L101.627 49.8464Z" fill="#E0E0E0"/>
<path d="M148.343 28.3869C149.302 28.618 150.169 29.1328 150.831 29.8642C151.898 31.0658 158.069 40.8414 158.069 40.8414C158.069 40.8414 158.069 42.5166 155.015 44.4886C153.75 45.3086 149.608 46.7646 149.608 46.7646C149.608 46.7646 147.353 43.7747 145.862 41.2372C144.37 38.6997 143.176 34.2042 144.222 31.7161C145.268 29.2281 147.254 28.1749 148.343 28.3869Z" fill="#E0E0E0"/>
<path d="M159.299 43.591C159.299 43.591 157.405 45.8175 156.196 46.2982C154.988 46.7788 150.542 48.1218 150.542 48.1218L150.959 54.2359C150.959 54.2359 149.757 58.378 149.884 58.6819C150.012 58.9859 160.628 62.6049 161.194 61.9899C161.759 61.375 162.523 55.1266 162.431 53.0485C162.339 50.9704 159.299 43.591 159.299 43.591Z" fill="#E0E0E0"/>
<path d="M109.912 18.7387C110.144 18.5541 110.437 18.462 110.733 18.4803C111.029 18.4986 111.308 18.6259 111.516 18.8376C113.347 20.7037 117.878 25.3829 118.316 26.0403C118.832 26.8743 119.306 27.8568 117.942 29.1998C116.577 30.5428 113.319 33.4832 111.926 33.356C110.534 33.2288 103.755 26.535 103.741 25.0366C103.741 23.3189 107.233 20.9298 107.233 20.9298C108.076 20.1401 108.971 19.4081 109.912 18.7387Z" fill="#E0E0E0"/>
<g opacity="0.3">
<path d="M90.6016 53.6281C91.4298 53.5828 92.2382 53.3576 92.9706 52.9682C93.703 52.5788 94.3418 52.0345 94.8426 51.3733C95.3607 50.7407 95.6475 49.9503 95.6554 49.1326C95.5891 48.2747 95.2122 47.4705 94.5952 46.8707C93.9828 46.2751 93.299 45.7575 92.5595 45.3298" fill="black"/>
</g>
<path d="M91.9225 44.9552C93.1736 45.3581 95.1599 48.037 94.6721 49.4082C94.1844 50.7795 91.0885 53.5644 89.7243 53.9461C88.3601 54.3278 86.1053 52.9636 84.9249 52.0235C83.7445 51.0834 83.8788 49.4719 84.8471 48.3268C85.8155 47.1817 90.4099 44.4604 91.9225 44.9552Z" fill="#E0E0E0"/>
<g opacity="0.3">
<path d="M87.6611 46.2699C87.8857 46.308 88.1006 46.39 88.2934 46.5113C88.4863 46.6326 88.6533 46.7908 88.7849 46.9767C89.1048 47.3505 89.3216 47.8012 89.414 48.2844C89.5365 48.8759 89.4824 49.4904 89.2585 50.0515C89.057 50.5537 88.7512 51.0075 88.3613 51.3828C87.9714 51.7581 87.5062 52.0463 86.9966 52.2285C86.5926 52.4158 86.139 52.4678 85.7031 52.377C85.7031 52.3133 86.1979 52.3063 86.8977 51.9882C87.8099 51.5817 88.531 50.8403 88.9122 49.9172C89.0951 49.4636 89.1605 48.9712 89.1025 48.4856C89.0444 48 88.8647 47.5369 88.5799 47.1393C88.1205 46.5032 87.6328 46.3335 87.6611 46.2699Z" fill="black"/>
</g>
<g opacity="0.3">
<path d="M92.8494 51.5923C92.1101 51.7551 91.3433 51.7461 90.6081 51.566C89.8728 51.3858 89.1887 51.0394 88.6084 50.5533C88.6649 50.4614 89.5273 50.9279 90.6865 51.2036C91.8457 51.4793 92.8423 51.5075 92.8494 51.5923Z" fill="black"/>
</g>
<g opacity="0.3">
<path d="M97.6219 53.204C96.0425 53.0252 94.5591 52.3552 93.3809 51.2885C94.112 51.5523 94.8211 51.8737 95.5014 52.2497C96.2308 52.5149 96.9396 52.8339 97.6219 53.204Z" fill="black"/>
</g>
<g opacity="0.3">
<path d="M107.524 59.9542C107.025 59.8144 106.549 59.6024 106.111 59.3251C105.019 58.7329 103.97 58.0645 102.972 57.3248C101.973 56.5835 101.028 55.7708 100.145 54.8932C99.7577 54.5498 99.422 54.1523 99.1484 53.7128C99.2333 53.6351 100.887 55.2961 103.206 57.0137C105.524 58.7314 107.574 59.8552 107.524 59.9542Z" fill="black"/>
</g>
<g opacity="0.3">
<path d="M90.8627 24.4287C90.8675 24.8614 90.7808 25.2901 90.6082 25.6869C90.2608 26.6691 89.7254 27.5742 89.032 28.3516C88.3443 29.1366 87.5084 29.7779 86.5722 30.2389C86.1989 30.4552 85.785 30.5923 85.3564 30.6418C86.6205 29.9899 87.769 29.135 88.7563 28.1113C89.6534 27.0061 90.3648 25.7623 90.8627 24.4287Z" fill="black"/>
</g>
<g opacity="0.3">
<path d="M93.6415 32.9107C92.6524 32.4276 91.7478 31.7879 90.9626 31.0164C90.0954 30.3376 89.3456 29.521 88.7432 28.599C89.6064 29.254 90.428 29.9622 91.2029 30.7195C92.0582 31.4013 92.8725 32.133 93.6415 32.9107Z" fill="black"/>
</g>
<g opacity="0.3">
<path d="M103.756 40.6081C103.253 40.4199 102.778 40.1655 102.342 39.8518C101.252 39.1567 100.213 38.3842 99.2324 37.5405C98.2488 36.7037 97.3297 35.794 96.4828 34.8192C96.106 34.4355 95.7826 34.0028 95.5215 33.5327C95.6063 33.455 97.1896 35.3139 99.4727 37.2648C101.756 39.2157 103.82 40.5092 103.756 40.6081Z" fill="black"/>
</g>
<g opacity="0.3">
<path d="M113.212 50.1787C112.731 49.9461 112.284 49.6488 111.884 49.2952C109.855 47.6949 108.091 45.7869 106.653 43.6405C106.323 43.2092 106.057 42.7332 105.861 42.2268C105.96 42.1703 107.275 44.206 109.318 46.383C111.361 48.5601 113.283 50.101 113.212 50.1787Z" fill="black"/>
</g>
<g opacity="0.3">
<path d="M101.141 9.40845C101.097 9.84933 100.959 10.2758 100.738 10.6595C100.257 11.6197 99.5705 12.4625 98.7277 13.1282C97.8849 13.7939 96.9061 14.2662 95.8606 14.5118C95.4348 14.6405 94.9855 14.6719 94.5459 14.6037C94.5459 14.5471 95.0407 14.4906 95.797 14.2573C97.774 13.6432 99.4535 12.3187 100.512 10.5394C100.692 10.1467 100.902 9.76859 101.141 9.40845Z" fill="black"/>
</g>
<g opacity="0.3">
<path d="M104.992 20.2584C103.706 19.3216 102.522 18.2532 101.458 17.0705C100.329 15.9619 99.3173 14.7397 98.4395 13.4233C99.6102 14.485 100.724 15.6081 101.776 16.7878C102.907 17.8878 103.981 19.0463 104.992 20.2584Z" fill="black"/>
</g>
<g opacity="0.3">
<path d="M115.305 31.1436C114.76 30.8195 114.255 30.4329 113.8 29.9915C111.502 27.9822 109.483 25.6738 107.799 23.1281C107.424 22.6153 107.106 22.0631 106.852 21.4812C107.278 21.9456 107.666 22.4445 108.011 22.9726C108.718 23.9127 109.686 25.1779 110.838 26.5068C111.99 27.8356 113.128 28.9878 113.962 29.7936C114.444 30.2084 114.893 30.6597 115.305 31.1436Z" fill="black"/>
</g>
<g opacity="0.3">
<path d="M124.388 42.8135C123.022 41.3555 121.745 39.8165 120.564 38.2049C119.29 36.6637 118.11 35.0468 117.03 33.3631C118.397 34.8227 119.674 36.3641 120.854 37.9787C122.13 39.5169 123.31 41.1314 124.388 42.8135Z" fill="black"/>
</g>
<g opacity="0.3">
<path d="M135.266 38.1979C134.879 37.7906 134.54 37.3399 134.256 36.8549C133.676 35.9925 132.906 34.7909 132.093 33.4338C131.28 32.0767 130.58 30.8326 130.099 29.8996C129.806 29.4197 129.568 28.9074 129.393 28.3728C129.755 28.8095 130.07 29.2834 130.333 29.7865L132.411 33.2429L134.489 36.7488C134.797 37.204 135.057 37.6895 135.266 38.1979Z" fill="black"/>
</g>
<g opacity="0.3">
<path d="M128.162 25.4394C127.718 25.0318 127.327 24.5713 126.995 24.0682C126.134 22.9062 125.336 21.6981 124.606 20.4492C123.874 19.201 123.214 17.9125 122.627 16.5899C122.355 16.0544 122.144 15.4901 121.998 14.9076C122.333 15.403 122.622 15.9283 122.86 16.4768C123.362 17.4593 124.076 18.8093 124.924 20.2654C125.773 21.7215 126.6 22.9938 127.207 23.9198C127.57 24.3973 127.889 24.9058 128.162 25.4394Z" fill="black"/>
</g>
<g opacity="0.3">
<path d="M118.351 2.04323C118.331 2.46679 118.196 2.87698 117.962 3.23071C117.476 4.13928 116.732 4.88447 115.824 5.37341C114.917 5.86235 113.886 6.07341 112.859 5.9803C112.435 5.97892 112.018 5.86685 111.65 5.65515C111.65 5.59861 112.124 5.71877 112.873 5.72584C113.843 5.7212 114.797 5.47848 115.651 5.019C116.513 4.55763 117.243 3.88368 117.772 3.06107C118.146 2.47439 118.295 2.02202 118.351 2.04323Z" fill="black"/>
</g>
<g opacity="0.3">
<path d="M120.077 12.9497C119.217 11.758 118.46 10.4952 117.815 9.17519C117.06 7.91331 116.41 6.59184 115.871 5.22398C116.731 6.4157 117.487 7.67842 118.133 8.99848C118.884 10.2622 119.534 11.5834 120.077 12.9497Z" fill="black"/>
</g>
<g opacity="0.3">
<path d="M151.73 31.0941C151.538 31.5382 151.284 31.9524 150.974 32.324C150.303 33.2857 149.509 34.1555 148.613 34.911C147.701 35.6737 146.612 36.1961 145.446 36.4307C144.969 36.555 144.468 36.555 143.99 36.4307C143.99 36.3671 144.549 36.4307 145.404 36.1833C146.501 35.886 147.521 35.3556 148.394 34.6283C149.266 33.8883 150.064 33.0644 150.776 32.1685C151.052 31.7751 151.372 31.4146 151.73 31.0941Z" fill="black"/>
</g>
<g opacity="0.3">
<path d="M152.294 45.4005C151.227 43.9011 150.259 42.3332 149.396 40.7071C148.428 39.1412 147.566 37.5117 146.816 35.8299C147.886 37.328 148.854 38.896 149.714 40.5233C150.683 42.0892 151.545 43.7187 152.294 45.4005Z" fill="black"/>
</g>
<g opacity="0.3">
<path d="M153.9 59.5867C153.879 58.9991 153.903 58.4107 153.971 57.8267C154.05 56.4141 154.05 54.9982 153.971 53.5857C153.88 52.1797 153.708 50.7801 153.455 49.3941C153.314 48.8231 153.219 48.2416 153.172 47.6553C153.426 48.1894 153.606 48.7553 153.709 49.3376C154.373 52.1134 154.548 54.9838 154.225 57.8196C154.199 58.4209 154.09 59.0156 153.9 59.5867Z" fill="black"/>
</g>
<g opacity="0.3">
<path d="M120.698 61.276C120.633 60.7668 120.633 60.2514 120.698 59.7422C120.754 58.795 120.875 57.4944 121.065 56.0666C121.256 54.6388 121.475 53.3453 121.666 52.4193C121.732 51.9107 121.86 51.4122 122.048 50.935C122.154 50.935 121.808 53.2605 121.433 56.1161C121.058 58.9717 120.797 61.2831 120.698 61.276Z" fill="black"/>
</g>
<g opacity="0.3">
<path d="M123.639 57.9539C123.609 56.6921 123.702 55.4304 123.915 54.1864C124.01 52.9242 124.228 51.6743 124.565 50.4543C124.59 51.7186 124.496 52.9824 124.282 54.2288C124.188 55.4883 123.973 56.7357 123.639 57.9539Z" fill="black"/>
</g>
<g opacity="0.3">
<path d="M139.853 88.9132C139.803 88.8321 139.765 88.744 139.74 88.6517C139.677 88.475 139.578 88.2205 139.479 87.8812C139.19 86.9185 138.972 85.9357 138.829 84.9408C138.341 81.6472 138.573 78.287 139.51 75.0921C140.448 71.8972 142.067 68.9438 144.257 66.4359C144.912 65.6792 145.621 64.9705 146.378 64.3154C146.639 64.0821 146.865 63.9195 147.014 63.8064C147.162 63.6933 147.24 63.6368 147.254 63.6509C147.008 63.9231 146.746 64.1803 146.469 64.4214C145.755 65.1126 145.077 65.8417 144.441 66.6055C142.334 69.123 140.77 72.0486 139.847 75.1989C138.924 78.3491 138.661 81.6561 139.076 84.9125C139.195 85.8999 139.372 86.8793 139.606 87.8459C139.715 88.195 139.798 88.5518 139.853 88.9132Z" fill="black"/>
</g>
<path d="M102.794 51.8046L102.765 51.8445C102.656 51.9921 102.687 52.2001 102.835 52.309L104.393 53.4586C104.541 53.5675 104.749 53.5361 104.858 53.3884L104.887 53.3486C104.996 53.2009 104.965 52.9929 104.817 52.884L103.258 51.7345C103.111 51.6256 102.903 51.657 102.794 51.8046Z" fill="#FF725E"/>
<path d="M110.505 40.7197L110.471 40.7564C110.348 40.8922 110.358 41.1023 110.494 41.2256L111.928 42.5276C112.064 42.6509 112.274 42.6408 112.397 42.505L112.43 42.4683C112.554 42.3325 112.544 42.1224 112.408 41.9991L110.974 40.6971C110.838 40.5738 110.628 40.5839 110.505 40.7197Z" fill="#FF725E"/>
<path d="M122.049 32.5028L122.01 32.5343C121.869 32.6509 121.848 32.8603 121.965 33.0019L123.196 34.497C123.313 34.6386 123.522 34.6589 123.664 34.5423L123.702 34.5108C123.844 34.3942 123.864 34.1848 123.747 34.0432L122.516 32.5481C122.4 32.4065 122.19 32.3862 122.049 32.5028Z" fill="#FF725E"/>
<path d="M103.953 13.1171L103.919 13.1526C103.791 13.2843 103.794 13.4947 103.926 13.6224L105.316 14.9707C105.448 15.0984 105.658 15.0952 105.786 14.9635L105.821 14.9279C105.948 14.7962 105.945 14.5859 105.813 14.4582L104.423 13.1099C104.291 12.9822 104.081 12.9854 103.953 13.1171Z" fill="#FF725E"/>
<path d="M134.812 27.5049L134.769 27.5296C134.609 27.6214 134.554 27.8251 134.646 27.9848L135.614 29.6697C135.706 29.8293 135.909 29.8844 136.069 29.7926L136.112 29.7679C136.272 29.6762 136.327 29.4724 136.235 29.3128L135.267 27.6278C135.175 27.4682 134.971 27.4132 134.812 27.5049Z" fill="#FF725E"/>
<path d="M128.163 16.3142C128.163 16.4286 128.118 16.5382 128.037 16.6191C127.956 16.7 127.846 16.7454 127.732 16.7454C127.647 16.7454 127.563 16.7201 127.492 16.6727C127.422 16.6253 127.366 16.558 127.334 16.4792C127.301 16.4004 127.292 16.3137 127.309 16.2301C127.326 16.1465 127.367 16.0696 127.427 16.0093C127.487 15.949 127.564 15.908 127.648 15.8913C127.731 15.8747 127.818 15.8832 127.897 15.9159C127.976 15.9485 128.043 16.0038 128.09 16.0747C128.138 16.1456 128.163 16.2289 128.163 16.3142Z" fill="#FF725E"/>
<path d="M129.018 17.424C129.018 17.5383 128.972 17.648 128.891 17.7288C128.81 17.8097 128.701 17.8551 128.586 17.8551C128.472 17.8551 128.362 17.8097 128.282 17.7288C128.201 17.648 128.155 17.5383 128.155 17.424C128.155 17.3096 128.201 17.1999 128.282 17.1191C128.362 17.0382 128.472 16.9928 128.586 16.9928C128.701 16.9928 128.81 17.0382 128.891 17.1191C128.972 17.1999 129.018 17.3096 129.018 17.424Z" fill="#FF725E"/>
<path d="M103.622 12.3277C103.632 12.4126 103.618 12.4989 103.579 12.5754C103.541 12.6519 103.48 12.7152 103.406 12.7573C103.331 12.7994 103.246 12.8183 103.16 12.8116C103.075 12.805 102.994 12.7731 102.926 12.7199C102.859 12.6668 102.809 12.5949 102.783 12.5133C102.757 12.4318 102.756 12.3443 102.78 12.262C102.803 12.1798 102.851 12.1065 102.917 12.0514C102.982 11.9964 103.063 11.9621 103.148 11.953C103.26 11.9411 103.373 11.9736 103.461 12.0436C103.55 12.1137 103.607 12.2157 103.622 12.3277Z" fill="#FF725E"/>
<path d="M93.125 27.355C93.1232 27.4688 93.0772 27.5774 92.9967 27.6579C92.9163 27.7383 92.8077 27.7843 92.6939 27.7862C92.5795 27.7862 92.4698 27.7407 92.389 27.6599C92.3081 27.579 92.2627 27.4693 92.2627 27.355C92.2627 27.2406 92.3081 27.131 92.389 27.0501C92.4698 26.9692 92.5795 26.9238 92.6939 26.9238C92.8082 26.9238 92.9179 26.9692 92.9987 27.0501C93.0796 27.131 93.125 27.2406 93.125 27.355Z" fill="#FF725E"/>
<path d="M147.77 51.9811C147.671 52.0658 147.564 52.1415 147.452 52.2073L146.498 52.8081L142.963 54.9852C140.016 56.8371 135.98 59.4665 131.654 62.5412C127.328 65.616 123.518 68.5776 120.804 70.7546L117.595 73.3558L116.719 74.0626C116.618 74.1488 116.509 74.2246 116.394 74.2888C116.474 74.1842 116.567 74.0893 116.669 74.0061L117.503 73.2498C118.21 72.5995 119.299 71.6806 120.635 70.5638C123.313 68.3302 127.102 65.3403 131.442 62.2514C135.782 59.1626 139.846 56.5967 142.836 54.7731C144.328 53.8684 145.55 53.1615 146.406 52.6526L147.388 52.1154C147.508 52.0516 147.637 52.0063 147.77 51.9811Z" fill="#455A64"/>
<path d="M152.497 197.702L152.355 197.491C152.06 197.054 151.95 196.517 152.051 196C152.152 195.482 152.454 195.025 152.891 194.73L159.456 190.301C159.893 190.006 160.43 189.897 160.947 189.997C161.465 190.098 161.922 190.4 162.217 190.837L162.359 191.048C162.505 191.264 162.606 191.506 162.658 191.761C162.71 192.016 162.711 192.279 162.662 192.535C162.612 192.79 162.513 193.033 162.369 193.25C162.225 193.467 162.04 193.654 161.825 193.799L155.266 198.225C155.05 198.37 154.808 198.472 154.553 198.524C154.298 198.576 154.035 198.577 153.78 198.527C153.524 198.478 153.281 198.378 153.064 198.235C152.847 198.091 152.66 197.906 152.515 197.69L152.497 197.702Z" fill="#FF725E"/>
</svg>
