<svg width="99" height="99" viewBox="0 0 99 99" fill="none" xmlns="http://www.w3.org/2000/svg">
<path d="M53.6318 94.8297C53.6477 94.8281 53.6637 94.8264 53.6796 94.8248C54.1862 94.7157 54.6901 94.5796 55.1902 94.4167C55.6903 94.2537 56.1864 94.064 56.6775 93.848C57.1686 93.6321 57.6543 93.39 58.1338 93.1222C58.6133 92.8543 59.0863 92.5609 59.5518 92.2424C60.0173 91.924 60.4751 91.5808 60.9243 91.2134C61.3736 90.8461 61.8139 90.4549 62.2445 90.0406C62.675 89.626 63.0956 89.1886 63.5053 88.7291C63.9151 88.2697 64.3137 87.7885 64.7005 87.2865C65.0874 86.7846 65.4621 86.2621 65.824 85.7201C66.1859 85.178 66.5348 84.6167 66.8699 84.0374C67.2051 83.458 67.5263 82.861 67.833 82.2473C68.1398 81.6337 68.4319 81.0038 68.7086 80.359C68.9853 79.7141 69.2465 79.0546 69.4918 78.3818C69.7371 77.709 69.9662 77.0233 70.1788 76.326C70.3914 75.6287 70.5873 74.9202 70.7661 74.202C70.9449 73.4838 71.1066 72.7563 71.2508 72.0208C71.395 71.2853 71.5216 70.5424 71.6304 69.7933C71.6685 69.5007 71.7038 69.2073 71.7365 68.9133C70.8635 69.9066 69.9251 70.8404 68.9276 71.7085C67.8599 72.6337 66.7275 73.4814 65.539 74.2452C64.3505 75.009 63.109 75.6869 61.8239 76.2738C60.5389 76.8606 59.2136 77.3549 57.8582 77.7529C56.5027 78.1509 55.1205 78.4516 53.7221 78.6527C53.692 78.6549 53.6619 78.657 53.6318 78.659V94.8297Z" fill="black"/>
<path d="M53.6318 0V19.9149C53.7056 19.9237 53.7794 19.9328 53.8531 19.9422C54.3333 20.0134 54.8117 20.0965 55.2878 20.1912C55.7638 20.2859 56.2375 20.3922 56.7083 20.5101C57.1792 20.6282 57.6472 20.7577 58.1117 20.8987C58.5763 21.0396 59.0373 21.1919 59.4944 21.3554C59.9515 21.5189 60.4045 21.6937 60.8531 21.8794C61.3016 22.0652 61.7454 22.2619 62.1843 22.4695C62.6231 22.6771 63.0567 22.8954 63.4848 23.1243C63.913 23.3531 64.3354 23.5923 64.7518 23.8418C65.1682 24.0915 65.5784 24.3513 65.9821 24.621C66.3856 24.8906 66.7825 25.1701 67.1724 25.4592C67.5623 25.7485 67.9451 26.0473 68.3203 26.3553C68.6956 26.6633 69.0632 26.9804 69.4229 27.3064C69.7826 27.6324 70.1342 27.9672 70.4775 28.3104C70.8208 28.6537 71.1557 29.0053 71.4817 29.365C71.8077 29.7247 72.1247 30.0923 72.4326 30.4676C72.7407 30.8428 73.0394 31.2256 73.3287 31.6155C73.6178 32.0054 73.8973 32.4023 74.1669 32.8058C74.4367 33.2095 74.6965 33.6197 74.9461 34.0361C75.1956 34.4525 75.4349 34.875 75.6637 35.3031C75.8925 35.7312 76.1108 36.1648 76.3184 36.6037C76.526 37.0425 76.7227 37.4864 76.9085 37.9348C77.0943 38.3834 77.269 38.8364 77.4325 39.2935C77.596 39.7506 77.7483 40.2117 77.8892 40.6762C78.0302 41.1408 78.1598 41.6087 78.2778 42.0796C78.3957 42.5504 78.502 43.0241 78.5967 43.5001C78.6914 43.9762 78.7745 44.4546 78.8458 44.9348C78.917 45.415 78.9764 45.8969 79.024 46.38C79.0716 46.8632 79.1073 47.3474 79.131 47.8323C79.1549 48.3171 79.1668 48.8025 79.1668 49.2879C79.1668 50.7007 79.0659 52.1116 78.8648 53.51C78.6637 54.9084 78.363 56.2906 77.965 57.6461C77.567 59.0015 77.0727 60.3268 76.4859 61.6118C76.408 61.771 76.3288 61.9294 76.2481 62.0871C76.2256 63.0686 76.1788 64.0484 76.1077 65.0247C75.9286 66.8901 75.6607 68.7341 75.3062 70.5424C74.9517 72.3508 74.5114 74.1189 73.9886 75.8332C73.466 77.5476 72.8622 79.2039 72.1819 80.7894C71.5015 82.375 70.7464 83.8858 69.9222 85.3102C69.0982 86.7346 68.2073 88.069 67.2563 89.3032C66.3053 90.5376 65.2966 91.6686 64.2379 92.6876C63.1793 93.7065 62.0735 94.6108 60.9288 95.3937C59.7842 96.1765 58.6036 96.8358 57.3963 97.3667C56.1928 97.8956 54.9657 98.2955 53.7243 98.5633C66.0619 97.5067 77.5555 91.8641 85.9371 82.7491C94.3188 73.6341 98.9796 61.7086 99.0001 49.3258C98.9997 36.913 94.3359 24.9535 85.9329 15.8175C77.5299 6.68156 66.0012 1.03607 53.6318 0Z" fill="black"/>
<path d="M53.6318 75.0124C59.7477 74.0303 65.3138 70.9017 69.332 66.1876C73.3502 61.4734 75.5577 55.4821 75.5588 49.2879C75.5583 43.0932 73.351 37.1014 69.3327 32.3867C65.3145 27.6721 59.7481 24.5432 53.6318 23.561V75.0124Z" fill="black"/>
<path d="M45.3683 23.5634C39.2524 24.5455 33.6864 27.6741 29.6682 32.3882C25.65 37.1023 23.4425 43.0937 23.4414 49.2879C23.4425 55.4822 25.65 61.4735 29.6682 66.1876C33.6864 70.9017 39.2524 74.0303 45.3683 75.0124V23.5634Z" fill="black"/>
<path d="M45.3683 94.8297C45.3524 94.8281 45.3365 94.8264 45.3206 94.8248C44.8139 94.7157 44.3101 94.5796 43.8099 94.4167C43.3098 94.2537 42.8137 94.064 42.3226 93.848C41.8316 93.6321 41.3458 93.39 40.8663 93.1222C40.3868 92.8543 39.9139 92.5609 39.4483 92.2424C38.9828 91.924 38.525 91.5808 38.0758 91.2134C37.6266 90.8461 37.1863 90.4549 36.7557 90.0406C36.3251 89.626 35.9046 89.1886 35.4948 88.7291C35.0851 88.2697 34.6864 87.7885 34.2996 87.2865C33.9128 86.7846 33.538 86.2621 33.1761 85.7201C32.8142 85.178 32.4654 84.6167 32.1302 84.0374C31.7951 83.458 31.4738 82.861 31.1671 82.2473C30.8603 81.6337 30.5683 81.0038 30.2915 80.359C30.0148 79.7141 29.7536 79.0546 29.5083 78.3818C29.2631 77.709 29.0339 77.0233 28.8213 76.326C28.6088 75.6287 28.4129 74.9202 28.2341 74.202C28.0552 73.4838 27.8935 72.7563 27.7493 72.0208C27.6052 71.2853 27.4785 70.5424 27.3698 69.7933C27.3317 69.5007 27.2963 69.2073 27.2637 68.9133C28.1366 69.9066 29.075 70.8404 30.0726 71.7085C31.1402 72.6337 32.2727 73.4814 33.4611 74.2452C34.6496 75.009 35.8911 75.6869 37.1762 76.2738C38.4612 76.8606 39.7865 77.3549 41.142 77.7529C42.4975 78.1509 43.8796 78.4516 45.278 78.6527C45.3081 78.6549 45.3382 78.657 45.3683 78.659V94.8297Z" fill="black"/>
<path d="M45.3682 0V19.9149C45.2944 19.9237 45.2207 19.9328 45.1469 19.9422C44.6667 20.0134 44.1884 20.0965 43.7123 20.1912C43.2362 20.2859 42.7626 20.3922 42.2917 20.5101C41.8208 20.6282 41.3529 20.7577 40.8884 20.8987C40.4238 21.0396 39.9628 21.1919 39.5057 21.3554C39.0486 21.5189 38.5955 21.6937 38.147 21.8794C37.6985 22.0652 37.2547 22.2619 36.8158 22.4695C36.377 22.6771 35.9433 22.8954 35.5152 23.1243C35.0871 23.3531 34.6646 23.5923 34.2482 23.8418C33.8318 24.0915 33.4216 24.3513 33.018 24.621C32.6144 24.8906 32.2175 25.1701 31.8277 25.4592C31.4378 25.7485 31.055 26.0473 30.6797 26.3553C30.3045 26.6633 29.9368 26.9804 29.5772 27.3064C29.2175 27.6324 28.8658 27.9672 28.5226 28.3104C28.1792 28.6537 27.8444 29.0053 27.5183 29.365C27.1924 29.7247 26.8753 30.0923 26.5674 30.4676C26.2594 30.8428 25.9606 31.2256 25.6714 31.6155C25.3823 32.0054 25.1028 32.4023 24.8332 32.8058C24.5634 33.2095 24.3036 33.6197 24.054 34.0361C23.8045 34.4525 23.5652 34.875 23.3364 35.3031C23.1075 35.7312 22.8892 36.1648 22.6816 36.6037C22.4741 37.0425 22.2773 37.4864 22.0916 37.9348C21.9058 38.3834 21.7311 38.8364 21.5676 39.2935C21.404 39.7506 21.2517 40.2117 21.1108 40.6762C20.9698 41.1408 20.8403 41.6087 20.7223 42.0796C20.6044 42.5504 20.498 43.0241 20.4034 43.5001C20.3086 43.9762 20.2256 44.4546 20.1543 44.9348C20.0831 45.415 20.0236 45.8969 19.976 46.38C19.9285 46.8632 19.8928 47.3474 19.869 47.8323C19.8452 48.3171 19.8333 48.8025 19.8333 49.2879C19.8333 50.7007 19.9342 52.1116 20.1353 53.51C20.3363 54.9084 20.6371 56.2906 21.0351 57.6461C21.4331 59.0015 21.9274 60.3268 22.5142 61.6118C22.592 61.771 22.6713 61.9294 22.752 62.0871C22.7744 63.0686 22.8213 64.0484 22.8924 65.0247C23.0715 66.8901 23.3393 68.7341 23.6939 70.5424C24.0484 72.3508 24.4887 74.1189 25.0114 75.8332C25.5341 77.5476 26.1379 79.2039 26.8182 80.7894C27.4986 82.375 28.2537 83.8858 29.0779 85.3102C29.9019 86.7346 30.7928 88.069 31.7437 89.3032C32.6948 90.5376 33.7035 91.6686 34.7621 92.6876C35.8208 93.7065 36.9266 94.6108 38.0713 95.3937C39.2159 96.1765 40.3964 96.8358 41.6038 97.3667C42.8073 97.8956 44.0344 98.2955 45.2758 98.5633C32.9381 97.5067 21.4445 91.8641 13.0629 82.7491C4.68132 73.6341 0.0204544 61.7086 0 49.3258C0.000348799 36.913 4.6642 24.9535 13.0672 15.8175C21.4701 6.68156 32.9988 1.03606 45.3682 0Z" fill="black"/>
</svg>
